# Blender 3.3.1
# www.blender.org
mtllib Mesh_SocketTile_01.mtl
o Cube
v 0.000000 0.245447 0.605639
v -0.742747 0.468241 0.717566
v -0.717566 0.468241 0.742747
v -0.697326 0.481120 0.697326
v -0.118154 0.245447 0.594002
v -0.980000 -0.322827 0.980000
v -0.980000 -0.302827 1.000000
v -0.231768 0.245447 0.559538
v -1.000000 -0.302827 0.980000
v -0.717566 0.468241 -0.742747
v -0.336475 0.245447 0.503571
v -0.742747 0.468241 -0.717566
v -0.697326 0.481120 -0.697326
v -0.428252 0.245447 0.428252
v -1.000000 -0.302827 -0.980000
v -0.503571 0.245447 0.336475
v -0.980000 -0.302827 -1.000000
v -0.980000 -0.322827 -0.980000
v -0.559538 0.245447 0.231768
v 0.742747 0.468241 0.717566
v 0.697326 0.481120 0.697326
v 0.717566 0.468241 0.742747
v -0.594002 0.245447 0.118154
v 1.000000 -0.302827 0.980000
v -0.605639 0.245447 0.000000
v 0.980000 -0.302827 1.000000
v 0.980000 -0.322827 0.980000
v 0.717566 0.468241 -0.742747
v -0.594002 0.245447 -0.118154
v 0.697326 0.481120 -0.697326
v -0.559538 0.245447 -0.231768
v 0.742747 0.468241 -0.717566
v 0.980000 -0.322827 -0.980000
v -0.503571 0.245447 -0.336475
v 0.980000 -0.302827 -1.000000
v 1.000000 -0.302827 -0.980000
v -0.428252 0.245447 -0.428252
v -1.000000 0.380493 -0.980000
v -0.986567 0.415311 -0.962475
v -0.962475 0.415311 -0.986567
v -0.336475 0.245447 -0.503571
v -0.980000 0.380493 -1.000000
v -0.231768 0.245447 -0.559538
v 1.000000 0.380493 -0.980000
v 0.980000 0.380493 -1.000000
v 0.962475 0.415311 -0.986567
v -0.118154 0.245447 -0.594002
v 0.986567 0.415311 -0.962475
v 0.000000 0.245447 -0.605639
v -0.980000 0.380493 1.000000
v -0.962475 0.415311 0.986567
v -0.986567 0.415311 0.962475
v 0.118154 0.245447 -0.594002
v -1.000000 0.380493 0.980000
v 0.980000 0.380493 1.000000
v 0.231768 0.245447 -0.559538
v 1.000000 0.380493 0.980000
v 0.986567 0.415311 0.962475
v 0.336475 0.245447 -0.503571
v 0.962475 0.415311 0.986567
v -0.879707 0.476070 -0.904495
v 0.428252 0.245447 -0.428252
v -0.908481 0.474873 -0.932573
v -0.932573 0.474873 -0.908481
v 0.503571 0.245447 -0.336475
v -0.904495 0.476070 -0.879707
v 0.879707 0.476070 -0.904495
v 0.559538 0.245447 -0.231768
v 0.904495 0.476070 -0.879707
v 0.932573 0.474873 -0.908481
v 0.594002 0.245447 -0.118154
v 0.908481 0.474873 -0.932573
v 0.605639 0.245447 0.000000
v -0.904495 0.476070 0.879707
v -0.932573 0.474873 0.908481
v -0.908481 0.474873 0.932573
v 0.594002 0.245447 0.118154
v -0.879707 0.476070 0.904495
v 0.904495 0.476070 0.879707
v 0.559538 0.245447 0.231768
v 0.879707 0.476070 0.904495
v 0.908481 0.474873 0.932573
v 0.503571 0.245447 0.336475
v 0.932573 0.474873 0.908481
v -0.782752 0.413372 -0.807934
v 0.428252 0.245447 0.428252
v -0.813092 0.414114 -0.837880
v -0.837880 0.414114 -0.813092
v 0.336475 0.245447 0.503571
v -0.807934 0.413372 -0.782752
v 0.782752 0.413372 -0.807934
v 0.231768 0.245447 0.559538
v 0.807934 0.413372 -0.782752
v 0.837880 0.414114 -0.813092
v 0.118154 0.245447 0.594002
v 0.813092 0.414114 -0.837880
v -0.807934 0.413372 0.782752
v -0.837880 0.414114 0.813092
v -0.813092 0.414114 0.837880
v -0.782752 0.413372 0.807934
v 0.807934 0.413372 0.782752
v 0.782752 0.413372 0.807934
v 0.813092 0.414114 0.837880
v 0.837880 0.414114 0.813092
v 0.336475 0.481120 -0.503571
v 0.428252 0.481120 -0.428252
v 0.118154 0.481120 -0.594002
v 0.231768 0.481120 -0.559538
v -0.118154 0.481120 -0.594002
v -0.336475 0.481120 -0.503571
v -0.231768 0.481120 -0.559538
v 0.000000 0.481120 -0.605639
v -0.503571 0.481120 -0.336475
v -0.503571 0.481120 0.336475
v -0.605639 0.481120 0.000000
v -0.594002 0.481120 -0.118154
v -0.594002 0.481120 0.118154
v -0.559538 0.481120 -0.231768
v -0.559538 0.481120 0.231768
v -0.428252 0.481120 0.428252
v -0.428252 0.481120 -0.428252
v 0.605639 0.481120 0.000000
v 0.594002 0.481120 -0.118154
v 0.594002 0.481120 0.118154
v 0.503571 0.481120 -0.336475
v 0.503571 0.481120 0.336475
v 0.559538 0.481120 -0.231768
v 0.559538 0.481120 0.231768
v 0.336475 0.481120 0.503571
v 0.118154 0.481120 0.594002
v 0.231768 0.481120 0.559538
v -0.118154 0.481120 0.594002
v -0.336475 0.481120 0.503571
v -0.231768 0.481120 0.559538
v 0.000000 0.481120 0.605639
v 0.428252 0.481120 0.428252
vn -0.0000 0.7651 0.6440
vn 0.6440 0.7651 -0.0000
vn -0.0000 0.6716 -0.7409
vn -0.0000 0.7651 -0.6440
vn -0.0000 -1.0000 -0.0000
vn -1.0000 -0.0000 -0.0000
vn -0.7409 0.6716 -0.0000
vn 0.7409 0.6716 -0.0000
vn -0.0000 0.6716 0.7409
vn -0.0000 0.7322 0.6810
vn 0.6810 0.7322 -0.0000
vn -0.6810 0.7322 -0.0000
vn -0.0000 0.7322 -0.6810
vn -0.0000 -0.0000 -1.0000
vn 1.0000 -0.0000 -0.0000
vn -0.0000 -0.0000 1.0000
vn -0.1890 0.9636 0.1890
vn -0.5774 -0.5773 0.5773
vn -0.1890 0.9636 -0.1890
vn -0.5774 -0.5773 -0.5773
vn 0.1890 0.9636 0.1890
vn 0.5774 -0.5773 0.5773
vn 0.1890 0.9636 -0.1890
vn 0.5774 -0.5773 -0.5773
vn -0.5986 0.5323 -0.5986
vn 0.5986 0.5323 -0.5986
vn -0.5986 0.5323 0.5986
vn 0.5986 0.5323 0.5986
vn -0.0210 0.9996 -0.0210
vn 0.0210 0.9996 -0.0210
vn -0.0210 0.9996 0.0210
vn 0.0210 0.9996 0.0210
vn 0.0123 0.9998 0.0123
vn -0.0123 0.9998 0.0123
vn 0.0123 0.9998 -0.0123
vn -0.0123 0.9998 -0.0123
vn 0.7071 -0.7071 -0.0000
vn -0.0000 -0.7071 0.7071
vn -0.7071 -0.0000 0.7071
vn 0.7071 -0.0000 -0.7071
vn -0.7071 -0.0000 -0.7071
vn 0.7071 -0.0000 0.7071
vn -0.0000 0.3599 -0.9330
vn -0.9330 0.3599 -0.0000
vn -0.0000 -0.7071 -0.7071
vn 0.9330 0.3599 -0.0000
vn -0.0000 0.3599 0.9330
vn -0.7071 -0.7071 -0.0000
vn -0.0000 0.9991 -0.0426
vn -0.0426 0.9991 -0.0000
vn 0.0426 0.9991 -0.0000
vn -0.0000 0.9991 0.0426
vn -0.4349 0.7885 -0.4349
vn 0.4349 0.7885 -0.4349
vn -0.4349 0.7885 0.4349
vn 0.4349 0.7885 0.4349
vn -0.0000 0.9997 0.0248
vn 0.0248 0.9997 -0.0000
vn -0.0248 0.9997 -0.0000
vn -0.0000 0.9997 -0.0248
vn 0.3885 0.8355 0.3885
vn -0.3885 0.8355 0.3885
vn 0.3885 0.8355 -0.3885
vn -0.3885 0.8355 -0.3885
vn -0.0000 0.9621 -0.2728
vn -0.2728 0.9621 -0.0000
vn 0.2728 0.9621 -0.0000
vn -0.0000 0.9621 0.2728
vn -0.3616 0.8593 -0.3617
vn 0.3616 0.8593 -0.3616
vn -0.3616 0.8593 0.3616
vn 0.3616 0.8593 0.3617
vn -0.6440 0.7651 -0.0000
vn 0.0980 -0.0000 -0.9952
vn 0.2903 -0.0000 -0.9569
vn 0.4714 -0.0000 -0.8819
vn 0.6344 -0.0000 -0.7730
vn 0.7730 -0.0000 -0.6344
vn 0.8819 -0.0000 -0.4714
vn 0.9569 -0.0000 -0.2903
vn 0.9952 -0.0000 -0.0980
vn 0.9952 -0.0000 0.0980
vn 0.9569 -0.0000 0.2903
vn 0.8819 -0.0000 0.4714
vn 0.7730 -0.0000 0.6344
vn 0.6344 -0.0000 0.7730
vn 0.4714 -0.0000 0.8819
vn 0.2903 -0.0000 0.9569
vn 0.0980 -0.0000 0.9952
vn -0.0980 -0.0000 0.9952
vn -0.2903 -0.0000 0.9569
vn -0.4714 -0.0000 0.8819
vn -0.6344 -0.0000 0.7730
vn -0.7730 -0.0000 0.6344
vn -0.8819 -0.0000 0.4714
vn -0.9569 -0.0000 0.2903
vn -0.9952 -0.0000 0.0980
vn -0.9952 -0.0000 -0.0980
vn -0.9569 -0.0000 -0.2903
vn -0.8819 -0.0000 -0.4714
vn -0.7730 -0.0000 -0.6344
vn -0.6344 -0.0000 -0.7730
vn -0.4714 -0.0000 -0.8819
vn -0.2903 -0.0000 -0.9569
vn -0.0980 -0.0000 -0.9952
vn -0.0000 1.0000 -0.0000
vn -0.3616 0.8593 -0.3616
vn 0.3617 0.8593 -0.3616
vn -0.3616 0.8593 0.3617
vn 0.3616 0.8593 0.3616
vt 0.940976 0.644556
vt 0.617292 0.103763
vt 0.202169 0.919303
vt 0.063903 0.616267
vt 0.152524 0.919303
vt 0.060245 0.612609
vt 0.567647 0.024823
vt 0.066844 0.609668
vt 0.940897 0.627391
vt 0.617292 0.121011
vt 0.027728 0.027728
vt 0.673266 0.564741
vt 0.024823 0.027728
vt 0.365167 0.277084
vt 0.940662 0.610885
vt 0.620657 0.137928
vt 0.365030 0.279990
vt 0.027728 0.024823
vt 0.083938 0.919303
vt 0.276060 0.612609
vt 0.940280 0.595673
vt 0.627258 0.153864
vt 0.272401 0.616267
vt 0.202169 0.710805
vt 0.567647 0.227439
vt 0.269461 0.609668
vt 0.927123 0.149256
vt 0.939766 0.582339
vt 0.636841 0.168206
vt 0.365030 0.564741
vt 0.312479 0.024823
vt 0.927637 0.135923
vt 0.649037 0.180403
vt 0.519148 0.277084
vt 0.365167 0.567647
vt 0.315385 0.027728
vt 0.312479 0.027728
vt 0.928019 0.120711
vt 0.663379 0.189985
vt 0.024823 0.710805
vt 0.063903 0.400453
vt 0.365030 0.024823
vt 0.066844 0.407051
vt 0.152524 0.710805
vt 0.060245 0.404111
vt 0.928254 0.104205
vt 0.679315 0.196586
vt 0.519148 0.899138
vt 0.027728 0.315385
vt 0.673403 0.277084
vt 0.928333 0.087039
vt 0.696232 0.199951
vt 0.024823 0.312479
vt 0.673266 0.279990
vt 0.027728 0.312479
vt 0.083938 0.710805
vt 0.276060 0.404111
vt 0.928254 0.069874
vt 0.713481 0.199951
vt 0.365030 0.227439
vt 0.269461 0.407051
vt 0.928019 0.053368
vt 0.730398 0.196586
vt 0.024823 0.919303
vt 0.272401 0.400453
vt 0.312479 0.312479
vt 0.927637 0.038156
vt 0.746334 0.189985
vt 0.519148 0.561836
vt 0.315385 0.312479
vt 0.519148 0.614387
vt 0.312479 0.315385
vt 0.519285 0.564741
vt 0.261285 0.825769
vt 0.927123 0.024823
vt 0.760675 0.180403
vt 0.464194 0.564741
vt 0.307982 0.651690
vt 0.673102 0.894046
vt 0.469339 0.562195
vt 0.827384 0.606389
vt 0.623457 0.279630
vt 0.469503 0.565695
vt 0.311482 0.648190
vt 0.261799 0.812435
vt 0.772872 0.168206
vt 0.464331 0.567647
vt 0.618312 0.277084
vt 0.262180 0.797223
vt 0.782455 0.153864
vt 0.618449 0.564741
vt 0.618312 0.614387
vt 0.618312 0.561836
vt 0.827384 0.886048
vt 0.623457 0.559290
vt 0.311482 0.368530
vt 0.262416 0.780717
vt 0.789056 0.137928
vt 0.731759 0.614387
vt 0.623457 0.616933
vt 0.623621 0.562790
vt 0.307982 0.365030
vt 0.262495 0.763552
vt 0.792421 0.121011
vt 0.464331 0.277084
vt 0.772430 0.564741
vt 0.024823 0.648190
vt 0.827384 0.556744
vt 0.469503 0.279036
vt 0.777575 0.562195
vt 0.673102 0.614387
vt 0.469339 0.282536
vt 0.028323 0.651690
vt 0.262416 0.746386
vt 0.792421 0.103763
vt 0.464194 0.279990
vt 0.772430 0.279990
vt 0.262180 0.729880
vt 0.789056 0.086845
vt 0.772567 0.277084
vt 0.618312 0.899138
vt 0.731759 0.894046
vt 0.777739 0.279036
vt 0.623457 0.896592
vt 0.028323 0.365030
vt 0.261799 0.714668
vt 0.782455 0.070910
vt 0.827384 0.277084
vt 0.777575 0.282536
vt 0.024823 0.368530
vt 0.299559 0.636165
vt 0.434031 0.872902
vt 0.261285 0.701335
vt 0.842066 0.149256
vt 0.772872 0.056568
vt 0.836396 0.614233
vt 0.303638 0.640345
vt 0.682114 0.886201
vt 0.300138 0.643845
vt 0.842580 0.135923
vt 0.760675 0.044371
vt 0.374708 0.617292
vt 0.295957 0.639766
vt 0.434031 0.617292
vt 0.299559 0.380555
vt 0.842962 0.120711
vt 0.746334 0.034788
vt 0.895720 0.532694
vt 0.295957 0.376954
vt 0.740771 0.622231
vt 0.300138 0.372874
vt 0.843197 0.104205
vt 0.730398 0.028188
vt 0.836396 0.878204
vt 0.303638 0.376375
vt 0.843276 0.087039
vt 0.713481 0.024823
vt 0.040347 0.639766
vt 0.374708 0.872902
vt 0.682114 0.622231
vt 0.036167 0.643845
vt 0.836396 0.548899
vt 0.890121 0.582339
vt 0.032667 0.640345
vt 0.843197 0.069874
vt 0.696232 0.024823
vt 0.886042 0.586520
vt 0.036746 0.636165
vt 0.895720 0.277084
vt 0.040347 0.376954
vt 0.842962 0.053368
vt 0.679315 0.028188
vt 0.886042 0.842130
vt 0.036746 0.380555
vt 0.836396 0.284929
vt 0.032667 0.376375
vt 0.890121 0.846310
vt 0.842580 0.038156
vt 0.663379 0.034788
vt 0.740771 0.886201
vt 0.036167 0.372874
vt 0.093408 0.928773
vt 0.285530 0.622079
vt 0.842066 0.024823
vt 0.939766 0.706773
vt 0.649037 0.044371
vt 0.424353 0.863224
vt 0.289881 0.626487
vt 0.365030 0.626970
vt 0.286279 0.630088
vt 0.940280 0.693440
vt 0.636841 0.056568
vt 0.281872 0.625738
vt 0.211639 0.701335
vt 0.093408 0.701335
vt 0.285530 0.394641
vt 0.940662 0.678228
vt 0.627258 0.070910
vt 0.034293 0.928773
vt 0.281872 0.390982
vt 0.886042 0.523016
vt 0.286279 0.386632
vt 0.940897 0.661722
vt 0.620657 0.086845
vt 0.424353 0.626970
vt 0.289881 0.390233
vt 0.054433 0.625738
vt 0.211639 0.928773
vt 0.365030 0.863224
vt 0.050025 0.630088
vt 0.046424 0.626487
vt 0.143053 0.928773
vt 0.050775 0.622079
vt 0.034293 0.701335
vt 0.054433 0.390982
vt 0.143054 0.701335
vt 0.050775 0.394641
vt 0.046424 0.390233
vt 0.886042 0.286762
vt 0.050025 0.386632
vt 0.417455 0.199290
vt 0.296000 0.714668
vt 0.876267 0.149256
vt 0.404122 0.188348
vt 0.295486 0.701335
vt 0.449173 0.212428
vt 0.296617 0.746386
vt 0.432667 0.207421
vt 0.296382 0.729880
vt 0.483504 0.212428
vt 0.296617 0.780717
vt 0.515222 0.199290
vt 0.296000 0.812435
vt 0.500010 0.207421
vt 0.296382 0.797223
vt 0.466339 0.214119
vt 0.296696 0.763552
vt 0.539498 0.175014
vt 0.961838 0.038156
vt 0.539498 0.077247
vt 0.961838 0.135923
vt 0.554327 0.126131
vt 0.962534 0.087039
vt 0.552636 0.143297
vt 0.962455 0.069874
vt 0.552636 0.108965
vt 0.962455 0.104205
vt 0.547629 0.159803
vt 0.962220 0.053368
vt 0.547629 0.092459
vt 0.962220 0.120711
vt 0.528555 0.063914
vt 0.973967 0.582339
vt 0.961324 0.149256
vt 0.528555 0.188348
vt 0.961324 0.024823
vt 0.295486 0.825769
vt 0.378350 0.126131
vt 0.877477 0.087039
vt 0.380041 0.143297
vt 0.877398 0.104205
vt 0.380041 0.108965
vt 0.877398 0.069874
vt 0.393179 0.175014
vt 0.876781 0.135923
vt 0.393179 0.077247
vt 0.876781 0.038156
vt 0.385048 0.159803
vt 0.877163 0.120711
vt 0.385048 0.092459
vt 0.877163 0.053368
vt 0.417455 0.052972
vt 0.974481 0.693440
vt 0.449173 0.039834
vt 0.975098 0.661722
vt 0.432667 0.044841
vt 0.974863 0.678228
vt 0.483504 0.039834
vt 0.975098 0.627391
vt 0.515222 0.052972
vt 0.974481 0.595673
vt 0.500010 0.044841
vt 0.974863 0.610885
vt 0.466339 0.038143
vt 0.975177 0.644556
vt 0.973967 0.706773
vt 0.404122 0.063914
vt 0.876267 0.024823
s 0
usemtl Material_SocketBlock
f 3/5/1 102/216/1 22/44/1
f 20/40/2 93/199/2 32/64/2
f 63/136/3 46/94/3 40/81/3
f 28/56/4 85/182/4 10/19/4
f 6/11/5 33/66/5 27/55/5
f 54/116/6 15/30/6 9/17/6
f 75/160/7 39/79/7 52/111/7
f 70/150/8 58/122/8 48/99/8
f 82/175/9 51/108/9 60/128/9
f 96/205/10 61/132/10 87/187/10
f 88/189/11 74/159/11 98/209/11
f 104/219/12 69/148/12 94/201/12
f 99/211/13 81/174/13 103/218/13
f 42/88/14 35/69/14 17/34/14
f 13/25/5 30/60/5 112/236/5
f 21/42/5 4/7/5 135/284/5
f 44/92/15 24/48/15 36/71/15
f 55/117/16 7/12/16 26/54/16
f 2/4/17 3/6/17 4/8/17
f 6/11/18 7/13/18 9/18/18
f 10/20/19 12/23/19 13/26/19
f 15/31/20 17/36/20 18/37/20
f 20/41/21 21/43/21 22/45/21
f 24/49/22 26/53/22 27/55/22
f 28/57/23 30/61/23 32/65/23
f 33/66/24 35/70/24 36/72/24
f 39/80/25 42/87/25 38/77/25
f 45/93/26 48/101/26 44/91/26
f 51/109/27 54/116/27 50/105/27
f 57/120/28 60/129/28 55/117/28
f 63/137/29 66/143/29 61/131/29
f 69/149/30 72/155/30 67/145/30
f 75/161/31 78/168/31 74/158/31
f 81/174/32 84/181/32 79/170/32
f 87/188/33 90/193/33 85/183/33
f 93/200/34 96/206/34 91/196/34
f 98/210/35 100/213/35 97/207/35
f 102/217/36 104/220/36 101/215/36
f 33/66/37 24/49/37 27/55/37
f 27/55/38 7/13/38 6/11/38
f 9/17/39 50/105/39 54/116/39
f 45/93/40 36/73/40 35/69/40
f 17/35/41 38/77/41 42/87/41
f 26/54/42 57/120/42 55/117/42
f 46/95/43 42/88/43 40/82/43
f 39/80/44 54/116/44 52/112/44
f 18/37/45 35/70/45 33/66/45
f 58/124/46 44/92/46 48/100/46
f 51/110/47 55/117/47 60/129/47
f 6/11/48 15/31/48 18/37/48
f 67/145/49 63/137/49 61/131/49
f 66/143/50 75/161/50 74/158/50
f 79/170/51 70/151/51 69/149/51
f 78/167/52 82/177/52 81/173/52
f 64/139/53 40/84/53 39/78/53
f 48/102/54 72/155/54 70/151/54
f 76/164/55 52/113/55 51/107/55
f 60/130/56 84/181/56 82/176/56
f 91/196/57 87/188/57 85/183/57
f 90/193/58 98/210/58 97/207/58
f 101/215/59 94/202/59 93/200/59
f 100/213/60 103/218/60 102/217/60
f 66/143/61 87/188/61 61/131/61
f 69/149/62 96/206/62 94/202/62
f 78/168/63 98/210/63 74/158/63
f 81/174/64 104/220/64 103/218/64
f 30/61/65 10/20/65 13/26/65
f 13/26/66 2/4/66 4/8/66
f 21/43/67 32/65/67 30/61/67
f 4/8/68 22/45/68 21/43/68
f 12/23/69 85/183/69 90/193/69
f 32/65/70 91/196/70 28/57/70
f 3/6/71 97/207/71 100/213/71
f 22/45/72 101/215/72 20/41/72
f 12/24/73 97/208/73 2/3/73
f 3/5/1 100/212/1 102/216/1
f 20/40/2 101/214/2 93/199/2
f 63/136/3 72/154/3 46/94/3
f 28/56/4 91/195/4 85/182/4
f 6/11/5 18/37/5 33/66/5
f 54/116/6 38/77/6 15/30/6
f 75/160/7 64/138/7 39/79/7
f 70/150/8 84/180/8 58/122/8
f 82/175/9 76/162/9 51/108/9
f 96/205/10 67/144/10 61/132/10
f 88/189/11 66/142/11 74/159/11
f 104/219/12 79/169/12 69/148/12
f 99/211/13 78/168/13 81/174/13
f 42/88/14 45/93/14 35/69/14
f 114/240/5 120/252/5 4/7/5
f 21/42/5 136/287/5 126/266/5
f 21/42/5 126/266/5 128/270/5
f 119/250/5 114/240/5 4/7/5
f 117/246/5 119/250/5 4/7/5
f 21/42/5 128/270/5 124/262/5
f 21/42/5 124/262/5 122/258/5
f 117/246/5 4/7/5 13/25/5
f 115/242/5 117/246/5 13/25/5
f 30/60/5 21/42/5 122/258/5
f 30/60/5 122/258/5 123/260/5
f 116/244/5 115/242/5 13/25/5
f 118/248/5 116/244/5 13/25/5
f 30/60/5 123/260/5 127/268/5
f 30/60/5 127/268/5 125/264/5
f 113/238/5 118/248/5 13/25/5
f 121/255/5 113/238/5 13/25/5
f 30/60/5 125/264/5 106/224/5
f 30/60/5 106/224/5 105/221/5
f 110/232/5 121/255/5 13/25/5
f 111/234/5 110/232/5 13/25/5
f 30/60/5 105/221/5 108/228/5
f 30/60/5 108/228/5 107/226/5
f 109/230/5 111/234/5 13/25/5
f 30/60/5 107/226/5 112/236/5
f 112/236/5 109/230/5 13/25/5
f 129/272/5 136/287/5 21/42/5
f 4/7/5 120/252/5 133/280/5
f 4/7/5 133/280/5 134/282/5
f 131/276/5 129/272/5 21/42/5
f 130/274/5 131/276/5 21/42/5
f 4/7/5 134/282/5 132/278/5
f 135/284/5 130/274/5 21/42/5
f 4/7/5 132/278/5 135/284/5
f 44/92/15 57/121/15 24/48/15
f 55/117/16 50/106/16 7/12/16
f 39/80/25 40/83/25 42/87/25
f 45/93/26 46/95/26 48/101/26
f 51/109/27 52/112/27 54/116/27
f 57/120/28 58/123/28 60/129/28
f 63/137/29 64/139/29 66/143/29
f 69/149/30 70/151/30 72/155/30
f 75/161/31 76/164/31 78/168/31
f 81/174/32 82/176/32 84/181/32
f 87/188/33 88/190/33 90/193/33
f 93/200/34 94/202/34 96/206/34
f 98/210/35 99/211/35 100/213/35
f 102/217/36 103/218/36 104/220/36
f 33/66/37 36/72/37 24/49/37
f 27/55/38 26/53/38 7/13/38
f 9/17/39 7/14/39 50/105/39
f 45/93/40 44/91/40 36/73/40
f 17/35/41 15/30/41 38/77/41
f 26/54/42 24/50/42 57/120/42
f 46/95/43 45/93/43 42/88/43
f 39/80/44 38/77/44 54/116/44
f 18/37/45 17/36/45 35/70/45
f 58/124/46 57/121/46 44/92/46
f 51/110/47 50/106/47 55/117/47
f 6/11/48 9/18/48 15/31/48
f 67/145/49 72/155/49 63/137/49
f 66/143/50 64/139/50 75/161/50
f 79/170/51 84/181/51 70/151/51
f 78/167/52 76/163/52 82/177/52
f 64/139/53 63/137/53 40/84/53
f 48/102/54 46/96/54 72/155/54
f 76/164/55 75/161/55 52/113/55
f 60/130/56 58/125/56 84/181/56
f 91/196/57 96/206/57 87/188/57
f 90/193/58 88/190/58 98/210/58
f 101/215/59 104/220/59 94/202/59
f 100/213/60 99/211/60 103/218/60
f 66/143/61 88/190/61 87/188/61
f 69/149/62 67/145/62 96/206/62
f 78/168/63 99/211/63 98/210/63
f 81/174/64 79/170/64 104/220/64
f 30/61/65 28/57/65 10/20/65
f 13/26/66 12/23/66 2/4/66
f 21/43/67 20/41/67 32/65/67
f 4/8/68 3/6/68 22/45/68
f 12/23/107 10/20/107 85/183/107
f 32/65/108 93/200/108 91/196/108
f 3/6/109 2/4/109 97/207/109
f 22/45/110 102/217/110 101/215/110
f 12/24/73 90/194/73 97/208/73
usemtl Material_SocketBlock
f 1/1/74 132/279/74 135/285/74
f 5/9/75 134/283/75 132/279/75
f 8/15/76 133/281/76 134/283/76
f 11/21/77 120/253/77 133/281/77
f 16/32/78 120/254/78 14/27/78
f 19/38/79 114/241/79 16/32/79
f 23/46/80 119/251/80 19/38/80
f 25/51/81 117/247/81 23/46/81
f 29/58/82 115/243/82 25/51/82
f 31/62/83 116/245/83 29/58/83
f 34/67/84 118/249/84 31/62/84
f 37/75/85 113/239/85 34/67/85
f 41/85/86 121/257/86 37/74/86
f 43/89/87 110/233/87 41/85/87
f 47/97/88 111/235/88 43/89/88
f 49/103/89 109/231/89 47/97/89
f 53/114/90 112/237/90 49/103/90
f 56/118/91 107/227/91 53/114/91
f 59/126/92 108/229/92 56/118/92
f 62/133/93 105/222/93 59/126/93
f 62/134/94 125/265/94 106/223/94
f 65/140/95 127/269/95 125/265/95
f 68/146/96 123/261/96 127/269/96
f 71/152/97 122/259/97 123/261/97
f 73/156/98 124/263/98 122/259/98
f 77/165/99 128/271/99 124/263/99
f 80/171/100 126/267/100 128/271/100
f 83/178/101 136/288/101 126/267/101
f 86/185/102 129/273/102 136/286/102
f 89/191/103 131/277/103 129/273/103
f 92/197/104 130/275/104 131/277/104
f 95/203/105 135/285/105 130/275/105
f 31/63/106 8/16/106 80/172/106
f 1/1/74 5/9/74 132/279/74
f 5/9/75 8/15/75 134/283/75
f 8/15/76 11/21/76 133/281/76
f 11/21/77 14/28/77 120/253/77
f 16/32/78 114/241/78 120/254/78
f 19/38/79 119/251/79 114/241/79
f 23/46/80 117/247/80 119/251/80
f 25/51/81 115/243/81 117/247/81
f 29/58/82 116/245/82 115/243/82
f 31/62/83 118/249/83 116/245/83
f 34/67/84 113/239/84 118/249/84
f 37/75/85 121/256/85 113/239/85
f 41/85/86 110/233/86 121/257/86
f 43/89/87 111/235/87 110/233/87
f 47/97/88 109/231/88 111/235/88
f 49/103/89 112/237/89 109/231/89
f 53/114/90 107/227/90 112/237/90
f 56/118/91 108/229/91 107/227/91
f 59/126/92 105/222/92 108/229/92
f 62/133/93 106/225/93 105/222/93
f 62/134/94 65/140/94 125/265/94
f 65/140/95 68/146/95 127/269/95
f 68/146/96 71/152/96 123/261/96
f 71/152/97 73/156/97 122/259/97
f 73/156/98 77/165/98 124/263/98
f 77/165/99 80/171/99 128/271/99
f 80/171/100 83/178/100 126/267/100
f 83/178/101 86/184/101 136/288/101
f 86/185/102 89/191/102 129/273/102
f 89/191/103 92/197/103 131/277/103
f 92/197/104 95/203/104 130/275/104
f 95/203/105 1/1/105 135/285/105
f 80/172/106 77/166/106 73/157/106
f 73/157/106 71/153/106 68/147/106
f 68/147/106 65/141/106 62/135/106
f 62/135/106 59/127/106 56/119/106
f 56/119/106 53/115/106 49/104/106
f 49/104/106 47/98/106 43/90/106
f 43/90/106 41/86/106 37/76/106
f 37/76/106 34/68/106 31/63/106
f 31/63/106 29/59/106 25/52/106
f 25/52/106 23/47/106 19/39/106
f 19/39/106 16/33/106 14/29/106
f 14/29/106 11/22/106 8/16/106
f 8/16/106 5/10/106 1/2/106
f 1/2/106 95/204/106 92/198/106
f 92/198/106 89/192/106 86/186/106
f 86/186/106 83/179/106 80/172/106
f 80/172/106 73/157/106 68/147/106
f 68/147/106 62/135/106 56/119/106
f 56/119/106 49/104/106 43/90/106
f 43/90/106 37/76/106 31/63/106
f 31/63/106 25/52/106 19/39/106
f 19/39/106 14/29/106 8/16/106
f 8/16/106 1/2/106 92/198/106
f 92/198/106 86/186/106 80/172/106
f 80/172/106 68/147/106 56/119/106
f 56/119/106 43/90/106 31/63/106
f 31/63/106 19/39/106 8/16/106
f 8/16/106 92/198/106 80/172/106
f 80/172/106 56/119/106 31/63/106
