# Blender 3.3.1
# www.blender.org
mtllib DisconnectedBlock.mtl
o Cube
v -1.000000 0.332676 0.984543
v -0.984543 0.332676 1.000000
v -0.984543 0.348133 0.984543
v -0.984543 -0.344905 0.984543
v -0.984543 -0.329448 1.000000
v -1.000000 -0.329448 0.984543
v -0.984543 0.332676 -1.000000
v -1.000000 0.332676 -0.984543
v -0.984543 0.348133 -0.984543
v -1.000000 -0.329448 -0.984543
v -0.984543 -0.329448 -1.000000
v -0.984543 -0.344905 -0.984543
v 1.000000 0.332676 0.984543
v 0.984543 0.348133 0.984543
v 0.984543 0.332676 1.000000
v 1.000000 -0.329448 0.984543
v 0.984543 -0.329448 1.000000
v 0.984543 -0.344905 0.984543
v 1.000000 0.332676 -0.984543
v 0.984543 0.332676 -1.000000
v 0.984543 0.348133 -0.984543
v 1.000000 -0.329448 -0.984543
v 0.984543 -0.344905 -0.984543
v 0.984543 -0.329448 -1.000000
v -0.984543 0.015366 1.000000
v -1.000000 0.015366 0.984543
v -1.000000 0.000646 0.984543
v -0.984543 0.000646 1.000000
v 1.000000 0.000646 -0.984543
v 0.984543 0.000646 -1.000000
v 0.984543 0.015366 -1.000000
v 1.000000 0.015366 -0.984543
v -1.000000 0.015366 -0.984543
v -0.984543 0.015366 -1.000000
v -0.984543 0.000646 -1.000000
v -1.000000 0.000646 -0.984543
v 1.000000 0.015366 0.984543
v 0.984543 0.015366 1.000000
v 0.984543 0.000646 1.000000
v 1.000000 0.000646 0.984543
v -1.000000 0.141332 0.984543
v -0.984543 0.141332 1.000000
v -0.984543 -0.013254 1.000000
v -1.000000 -0.013254 0.984543
v 0.984543 -0.013254 -1.000000
v 1.000000 -0.013254 -0.984543
v 1.000000 0.141332 -0.984543
v 0.984543 0.141332 -1.000000
v -0.984543 0.141332 -1.000000
v -1.000000 0.141332 -0.984543
v -1.000000 -0.013254 -0.984543
v -0.984543 -0.013254 -1.000000
v 0.984543 0.141332 1.000000
v 1.000000 0.141332 0.984543
v 1.000000 -0.013254 0.984543
v 0.984543 -0.013254 1.000000
v 0.984543 0.002909 1.000000
v 1.000000 0.002909 0.984543
v -0.984543 0.002909 -1.000000
v -1.000000 0.002909 -0.984543
v 0.984543 0.002909 -1.000000
v 1.000000 0.002909 -0.984543
v -1.000000 0.002909 0.984543
v -0.984543 0.002909 1.000000
v 0.984543 -0.001221 1.000000
v -0.984543 -0.001221 -1.000000
v 1.000000 -0.001221 -0.984543
v -1.000000 -0.001221 0.984543
v 1.000000 -0.001221 0.984543
v -1.000000 -0.001221 -0.984543
v 0.984543 -0.001221 -1.000000
v -0.984543 -0.001221 1.000000
vn -0.0000 -0.0000 1.0000
vn -0.0000 -0.0000 -1.0000
vn -0.0000 1.0000 -0.0000
vn -0.0000 -1.0000 -0.0000
vn 1.0000 -0.0000 -0.0000
vn -0.5774 0.5774 0.5774
vn -0.5774 -0.5774 0.5774
vn -0.5774 0.5774 -0.5774
vn -0.5774 -0.5774 -0.5774
vn 0.5774 0.5774 0.5774
vn 0.5774 -0.5774 0.5774
vn 0.5774 0.5774 -0.5774
vn 0.5774 -0.5774 -0.5774
vn 0.7071 -0.7071 -0.0000
vn -0.0000 -0.7071 0.7071
vn 0.7071 -0.0000 -0.7071
vn -0.0000 0.7071 -0.7071
vn -0.7071 0.7071 -0.0000
vn -0.0000 -0.7071 -0.7071
vn 0.7071 0.7071 -0.0000
vn -0.0000 0.7071 0.7071
vn -0.7071 -0.7071 -0.0000
vn -0.7071 -0.0000 0.7071
vn 0.7071 -0.0000 0.7071
vn -0.7071 -0.0000 -0.7071
vn -1.0000 -0.0000 -0.0000
vt 0.675627 0.729646
vt 0.614615 0.701264
vt 0.925433 0.013011
vt 0.442883 0.610162
vt 0.679287 0.727057
vt 0.625085 0.324598
vt 0.986989 0.013011
vt 0.619098 0.701264
vt 0.013011 0.442883
vt 0.679287 0.730940
vt 0.928603 0.013011
vt 0.983819 0.013011
vt 0.679287 0.756963
vt 0.954626 0.416860
vt 0.416860 0.013011
vt 0.925433 0.442883
vt 0.679287 0.760845
vt 0.771627 0.636185
vt 0.957796 0.416860
vt 0.786280 0.013011
vt 0.675627 0.758257
vt 0.781036 0.610162
vt 0.928603 0.442883
vt 0.767144 0.636185
vt 0.553603 0.729874
vt 0.584109 0.701264
vt 0.630329 0.298576
vt 0.983819 0.442883
vt 0.557264 0.727286
vt 0.925433 0.416860
vt 0.588592 0.701264
vt 0.442883 0.324598
vt 0.557264 0.731169
vt 0.986989 0.442883
vt 0.013011 0.846732
vt 0.928603 0.416860
vt 0.646313 0.731169
vt 0.710616 0.636185
vt 0.928603 0.846732
vt 0.781036 0.324598
vt 0.642653 0.728580
vt 0.442883 0.013011
vt 0.954626 0.846732
vt 0.706132 0.636185
vt 0.646313 0.727286
vt 0.925433 0.846732
vt 0.416860 0.416860
vt 0.957796 0.846732
vt 0.586947 0.727286
vt 0.533984 0.324598
vt 0.899410 0.013011
vt 0.558086 0.701264
vt 0.586947 0.731169
vt 0.983819 0.416860
vt 0.416860 0.442883
vt 0.896240 0.013011
vt 0.583286 0.729874
vt 0.553603 0.701264
vt 0.625085 0.610162
vt 0.986989 0.416860
vt 0.738653 0.730940
vt 0.741122 0.636185
vt 0.896240 0.442883
vt 0.604307 0.013011
vt 0.734993 0.728352
vt 0.786280 0.298576
vt 0.957796 0.013011
vt 0.736638 0.636185
vt 0.013011 0.013011
vt 0.738653 0.727057
vt 0.899410 0.442883
vt 0.954626 0.013011
vt 0.705310 0.729646
vt 0.533984 0.610162
vt 0.645121 0.701264
vt 0.899410 0.416860
vt 0.708970 0.727057
vt 0.630329 0.013011
vt 0.649604 0.701264
vt 0.983819 0.846732
vt 0.708970 0.730940
vt 0.896240 0.416860
vt 0.416860 0.846732
vt 0.986989 0.846732
vt 0.612969 0.728580
vt 0.896240 0.846732
vt 0.604307 0.298576
vt 0.675627 0.636185
vt 0.616630 0.727286
vt 0.957796 0.442883
vt 0.013011 0.416860
vt 0.899410 0.846732
vt 0.616630 0.731169
vt 0.680110 0.636185
vt 0.442883 0.298576
vt 0.954626 0.442883
vt 0.812303 0.614646
vt 0.840880 0.904693
vt 0.690164 0.324598
vt 0.619098 0.636185
vt 0.507961 0.610162
vt 0.614615 0.636185
vt 0.840880 0.900210
vt 0.536606 0.298576
vt 0.510583 0.298576
vt 0.649604 0.636185
vt 0.695408 0.013011
vt 0.814857 0.298576
vt 0.599062 0.610162
vt 0.645121 0.636185
vt 0.814857 0.303059
vt 0.705310 0.761446
vt 0.840880 0.614646
vt 0.588592 0.636185
vt 0.507961 0.324598
vt 0.695408 0.298576
vt 0.584109 0.636185
vt 0.814857 0.013011
vt 0.705310 0.756963
vt 0.812303 0.904693
vt 0.814857 0.588623
vt 0.599063 0.324598
vt 0.558086 0.636185
vt 0.690164 0.610162
vt 0.553603 0.636185
vt 0.812303 0.900210
vt 0.536606 0.013011
vt 0.471373 0.636185
vt 0.442883 0.926233
vt 0.721430 0.013011
vt 0.771627 0.701035
vt 0.471373 0.640668
vt 0.716186 0.610162
vt 0.767144 0.701035
vt 0.507733 0.298576
vt 0.840880 0.298576
vt 0.680110 0.701035
vt 0.840880 0.303059
vt 0.539457 0.298576
vt 0.675627 0.701035
vt 0.733887 0.756963
vt 0.471373 0.926233
vt 0.716186 0.324598
vt 0.710616 0.701035
vt 0.840880 0.013011
vt 0.507733 0.013011
vt 0.733887 0.761446
vt 0.706132 0.701035
vt 0.442883 0.636185
vt 0.840880 0.588623
vt 0.539457 0.013011
vt 0.741122 0.701035
vt 0.442883 0.640668
vt 0.736638 0.701035
vt 0.721430 0.298576
vt 0.500711 0.640668
vt 0.814857 0.900210
vt 0.870218 0.588623
vt 0.500711 0.636185
vt 0.814857 0.904693
vt 0.812303 0.588623
vt 0.554450 0.761675
vt 0.870218 0.013011
vt 0.812303 0.013011
vt 0.707864 0.756963
vt 0.527580 0.926233
vt 0.554450 0.757191
vt 0.707864 0.761446
vt 0.843435 0.614646
vt 0.870218 0.298576
vt 0.812303 0.298576
vt 0.870218 0.303059
vt 0.812303 0.303059
vt 0.527580 0.640668
vt 0.843435 0.900210
vt 0.500711 0.926233
vt 0.527580 0.636185
vt 0.814857 0.614646
vt 0.843435 0.904693
vt 0.445351 0.640668
vt 0.499864 0.640668
vt 0.736355 0.761446
vt 0.869371 0.013011
vt 0.843348 0.013011
vt 0.553603 0.761675
vt 0.869371 0.303059
vt 0.843348 0.303059
vt 0.473841 0.640668
vt 0.526734 0.640668
vt 0.445351 0.636185
vt 0.869371 0.588623
vt 0.843348 0.588623
vt 0.499864 0.636185
vt 0.736355 0.756963
vt 0.526733 0.926233
vt 0.473841 0.926233
vt 0.553603 0.757191
vt 0.869371 0.298576
vt 0.843348 0.298576
vt 0.473841 0.636185
vt 0.499864 0.926233
vt 0.445351 0.926233
vt 0.526734 0.636185
s 0
usemtl Material.001
f 15/59/1 25/99/1 38/124/1
f 45/135/2 24/95/2 11/42/2
f 7/27/2 31/107/2 34/116/2
f 14/55/3 9/35/3 3/9/3
f 4/15/4 23/91/4 18/69/4
f 19/74/5 37/122/5 32/109/5
f 1/1/6 2/5/6 3/10/6
f 4/13/7 5/17/7 6/21/7
f 7/25/8 8/29/8 9/33/8
f 10/37/9 11/41/9 12/45/9
f 13/49/10 14/53/10 15/57/10
f 16/61/11 17/65/11 18/70/11
f 19/73/12 20/77/12 21/81/12
f 22/85/13 23/89/13 24/93/13
f 23/92/14 16/63/14 18/71/14
f 18/72/15 5/19/15 4/14/15
f 20/79/16 32/110/16 31/106/16
f 21/84/17 7/28/17 9/34/17
f 9/36/18 1/3/18 3/11/18
f 12/48/19 24/96/19 23/90/19
f 14/56/20 19/76/20 21/82/20
f 3/12/21 15/60/21 14/54/21
f 4/16/22 10/39/22 12/46/22
f 26/102/23 2/8/23 1/2/23
f 56/153/24 69/190/24 65/180/24
f 52/147/25 70/194/25 66/182/25
f 34/117/25 8/31/25 7/26/25
f 38/125/24 13/52/24 15/58/24
f 44/132/23 72/200/23 68/188/23
f 1/4/26 33/115/26 26/101/26
f 61/170/16 67/186/16 71/198/16
f 63/174/26 70/195/26 68/189/26
f 62/172/5 69/191/5 67/186/5
f 57/156/1 72/201/1 65/181/1
f 59/163/2 71/198/2 66/183/2
f 66/184/2 45/136/2 52/145/2
f 65/180/1 43/129/1 56/153/1
f 67/187/5 55/150/5 46/138/5
f 68/188/26 51/142/26 44/132/26
f 71/199/16 46/138/16 45/136/16
f 68/189/23 64/177/23 63/174/23
f 66/185/25 60/167/25 59/162/25
f 65/181/24 58/159/24 57/156/24
f 22/87/5 55/151/5 16/64/5
f 45/137/16 22/88/16 24/94/16
f 55/152/24 17/68/24 16/62/24
f 44/133/26 10/40/26 6/22/26
f 51/144/25 11/44/25 10/38/25
f 56/155/1 5/20/1 17/66/1
f 43/131/23 6/24/23 5/18/23
f 64/178/1 38/126/1 25/97/1
f 38/126/24 58/160/24 37/120/24
f 58/161/5 32/111/5 37/121/5
f 62/173/16 31/108/16 32/111/16
f 61/171/2 34/118/2 31/108/2
f 34/119/25 60/168/25 33/112/25
f 60/169/26 26/103/26 33/113/26
f 26/103/23 64/179/23 25/98/23
f 15/59/1 2/6/1 25/99/1
f 11/42/2 52/146/2 45/135/2
f 45/135/2 30/105/2 24/95/2
f 7/27/2 20/78/2 31/107/2
f 14/55/3 21/83/3 9/35/3
f 4/15/4 12/47/4 23/91/4
f 19/74/5 13/50/5 37/122/5
f 23/92/14 22/86/14 16/63/14
f 18/72/15 17/67/15 5/19/15
f 20/79/16 19/75/16 32/110/16
f 21/84/17 20/80/17 7/28/17
f 9/36/18 8/30/18 1/3/18
f 12/48/19 11/43/19 24/96/19
f 14/56/20 13/51/20 19/76/20
f 3/12/21 2/7/21 15/60/21
f 4/16/22 6/23/22 10/39/22
f 26/102/23 25/100/23 2/8/23
f 56/153/24 55/149/24 69/190/24
f 52/147/25 51/141/25 70/194/25
f 34/117/25 33/114/25 8/31/25
f 38/125/24 37/123/24 13/52/24
f 44/132/23 43/128/23 72/200/23
f 1/4/26 8/32/26 33/115/26
f 61/170/16 62/172/16 67/186/16
f 63/174/26 60/166/26 70/195/26
f 62/172/5 58/158/5 69/191/5
f 57/156/1 64/176/1 72/201/1
f 59/163/2 61/170/2 71/198/2
f 66/184/2 71/199/2 45/136/2
f 65/180/1 72/202/1 43/129/1
f 67/187/5 69/192/5 55/150/5
f 68/188/26 70/196/26 51/142/26
f 71/199/16 67/187/16 46/138/16
f 68/189/23 72/203/23 64/177/23
f 66/185/25 70/197/25 60/167/25
f 65/181/24 69/193/24 58/159/24
f 22/87/1 29/104/1 46/139/1
f 55/151/1 40/127/1 16/64/1
f 22/87/5 46/139/5 55/151/5
f 45/137/16 46/140/16 22/88/16
f 55/152/24 56/154/24 17/68/24
f 44/133/26 51/143/26 10/40/26
f 51/144/25 52/148/25 11/44/25
f 56/155/1 43/130/1 5/20/1
f 43/131/23 44/134/23 6/24/23
f 64/178/1 57/157/1 38/126/1
f 38/126/24 57/157/24 58/160/24
f 58/161/5 62/173/5 32/111/5
f 62/173/16 61/171/16 31/108/16
f 61/171/2 59/164/2 34/118/2
f 34/119/25 59/165/25 60/168/25
f 60/169/26 63/175/26 26/103/26
f 26/103/23 63/175/23 64/179/23
l 35 52
