# Blender 3.3.1
# www.blender.org
mtllib Wall.mtl
o Wall
v -30.254267 50.507343 24.258608
v -30.254267 -0.060260 24.258608
v -30.254267 50.507343 -23.437313
v -30.254267 -0.060260 -23.437313
v 30.250721 50.507343 24.258608
v 30.250721 -0.060260 24.258608
v 30.250721 50.507343 -23.437313
v 30.250721 -0.060260 -23.437313
v -28.000935 50.507343 22.005278
v -28.000935 -0.060260 22.005278
v -28.000935 50.507343 -23.437313
v -28.000935 -0.060260 -23.437313
v 27.997389 50.507343 22.005278
v 27.997389 -0.060260 22.005278
v 27.997389 50.507343 -23.437313
v 27.997389 -0.060260 -23.437313
v -10.085938 -0.060260 24.258608
v 10.082392 -0.060260 24.258608
v 10.082392 50.507343 24.258608
v -10.085938 50.507343 24.258608
v -9.334826 -0.060260 22.005278
v 9.331281 -0.060260 22.005278
v 9.331281 50.507343 22.005278
v -9.334826 50.507343 22.005278
v 30.250721 -0.060260 8.359967
v 30.250721 -0.060260 -7.538673
v 30.250721 50.507343 -7.538673
v 30.250721 50.507343 8.359967
v 27.997389 -0.060260 6.857747
v 27.997389 -0.060260 -8.289784
v 27.997389 50.507343 -8.289783
v 27.997389 50.507343 6.857748
v -30.254267 50.507343 8.359967
v -30.254267 50.507343 -7.538673
v -30.254267 -0.060260 -7.538673
v -30.254267 -0.060260 8.359967
v -28.000935 50.507343 6.857747
v -28.000935 50.507343 -8.289784
v -28.000935 -0.060260 -8.289783
v -28.000935 -0.060260 6.857748
v -30.254267 33.651474 24.258608
v -30.254267 16.795607 24.258608
v 30.250721 16.795609 -23.437313
v 30.250721 33.651474 -23.437313
v -30.254267 33.651474 -23.437313
v -30.254267 16.795607 -23.437313
v 30.250721 33.651474 24.258608
v 30.250721 16.795607 24.258608
v -28.000935 33.651474 22.005278
v -28.000935 16.795607 22.005278
v 27.997389 16.795609 -23.437313
v 27.997389 33.651474 -23.437313
v -28.000935 33.651474 -23.437313
v -28.000935 16.795607 -23.437313
v 27.997389 33.651474 22.005278
v 27.997389 16.795607 22.005278
v 9.331281 16.795609 22.005278
v 9.331281 33.651474 22.005278
v -9.334826 16.795609 22.005278
v -9.334826 33.651474 22.005278
v 10.082392 33.651474 24.258608
v 10.082392 16.795607 24.258608
v -10.085938 33.651474 24.258608
v -10.085938 16.795607 24.258608
v 27.997389 16.795609 -8.289783
v 27.997389 33.651474 -8.289783
v 27.997389 16.795609 6.857747
v 27.997389 33.651474 6.857748
v 30.250721 33.651474 -7.538673
v 30.250721 16.795607 -7.538673
v 30.250721 33.651474 8.359967
v 30.250721 16.795607 8.359967
v -28.000935 16.795609 6.857747
v -28.000935 33.651474 6.857747
v -28.000935 16.795609 -8.289783
v -28.000935 33.651474 -8.289784
v -30.254267 33.651474 8.359967
v -30.254267 16.795607 8.359967
v -30.254267 33.651474 -7.538673
v -30.254267 16.795607 -7.538673
vn 1.0000 -0.0000 -0.0000
vn -1.0000 -0.0000 -0.0000
vn -0.0000 -0.0000 1.0000
vn -0.0000 -0.0000 -1.0000
vn -0.0000 -1.0000 -0.0000
vn -0.0000 1.0000 -0.0000
vt 0.907240 0.667013
vt 0.025605 0.025605
vt 0.708736 0.667880
vt 0.574612 0.616671
vt 0.657526 0.667880
vt 0.574612 0.360499
vt 0.332987 0.667880
vt 0.281777 0.025605
vt 0.332987 0.616671
vt 0.469652 0.924053
vt 0.708736 0.909505
vt 0.469652 0.667881
vt 0.657526 0.909505
vt 0.332987 0.360499
vt 0.532277 0.667880
vt 0.025605 0.639502
vt 0.907240 0.360499
vt 0.025605 0.332119
vt 0.332987 0.974395
vt 0.281777 0.332119
vt 0.583486 0.667880
vt 0.025605 0.383329
vt 0.395612 0.924053
vt 0.532276 0.909505
vt 0.267230 0.639502
vt 0.267230 0.383329
vt 0.395612 0.667880
vt 0.583486 0.909505
vt 0.332987 0.309289
vt 0.720151 0.679296
vt 0.918655 0.655598
vt 0.640369 0.281777
vt 0.640369 0.025605
vt 0.344402 0.679296
vt 0.646111 0.679296
vt 0.589159 0.309289
vt 0.720151 0.909505
vt 0.870578 0.281777
vt 0.458236 0.924053
vt 0.646111 0.909505
vt 0.458236 0.667881
vt 0.870578 0.025605
vt 0.856031 0.616671
vt 0.918655 0.371914
vt 0.332987 0.025605
vt 0.520861 0.679296
vt 0.589159 0.025605
vt 0.594901 0.679296
vt 0.344402 0.962980
vt 0.856031 0.360499
vt 0.520861 0.909505
vt 0.625821 0.616671
vt 0.407027 0.924053
vt 0.594901 0.909505
vt 0.625821 0.360499
vt 0.407027 0.667880
vt 0.332987 0.770052
vt 0.281777 0.127776
vt 0.332987 0.872224
vt 0.281777 0.229948
vt 0.907240 0.462670
vt 0.025605 0.229948
vt 0.907240 0.564842
vt 0.025605 0.127776
vt 0.344402 0.773857
vt 0.589159 0.214728
vt 0.344402 0.868418
vt 0.589159 0.120166
vt 0.918655 0.466475
vt 0.332987 0.120166
vt 0.918655 0.561037
vt 0.332987 0.214728
vt 0.583486 0.748422
vt 0.106146 0.383329
vt 0.583486 0.828964
vt 0.186688 0.383329
vt 0.532276 0.828964
vt 0.186688 0.639502
vt 0.532276 0.748422
vt 0.106146 0.639502
vt 0.594901 0.756032
vt 0.779294 0.360499
vt 0.594901 0.832769
vt 0.702558 0.360499
vt 0.520861 0.832769
vt 0.702558 0.616671
vt 0.520861 0.756032
vt 0.779294 0.616671
vt 0.708736 0.748422
vt 0.494070 0.616671
vt 0.708736 0.828964
vt 0.413528 0.616671
vt 0.657526 0.828964
vt 0.413529 0.360499
vt 0.657526 0.748422
vt 0.494070 0.360499
vt 0.720151 0.756032
vt 0.717105 0.281777
vt 0.720151 0.832769
vt 0.793842 0.281777
vt 0.646111 0.832769
vt 0.793842 0.025605
vt 0.646111 0.756032
vt 0.717105 0.025605
vt 0.574612 0.531280
vt 0.110996 0.025605
vt 0.574612 0.445889
vt 0.196387 0.025605
vt 0.267230 0.468720
vt 0.395612 0.753271
vt 0.267230 0.554111
vt 0.395612 0.838662
vt 0.469652 0.838662
vt 0.332987 0.531280
vt 0.469652 0.753271
vt 0.332987 0.445889
vt 0.110996 0.332119
vt 0.025605 0.554111
vt 0.196387 0.332119
vt 0.025605 0.468720
vt 0.640369 0.196386
vt 0.418378 0.309289
vt 0.640369 0.110996
vt 0.503769 0.309289
vt 0.625821 0.445889
vt 0.407027 0.753271
vt 0.625821 0.531280
vt 0.407027 0.838662
vt 0.458236 0.838662
vt 0.870578 0.196386
vt 0.458236 0.753271
vt 0.870578 0.110996
vt 0.418378 0.025605
vt 0.856031 0.531280
vt 0.503769 0.025605
vt 0.856031 0.445889
vt 0.503769 0.120166
vt 0.418378 0.120166
vt 0.503769 0.214728
vt 0.418378 0.214728
vt 0.110996 0.229948
vt 0.196387 0.229948
vt 0.110996 0.127776
vt 0.196387 0.127776
vt 0.702558 0.445889
vt 0.702558 0.531280
vt 0.779294 0.445889
vt 0.779294 0.531280
vt 0.186688 0.554111
vt 0.186688 0.468720
vt 0.106146 0.554111
vt 0.106146 0.468720
vt 0.717105 0.110996
vt 0.717105 0.196386
vt 0.793842 0.110996
vt 0.793842 0.196386
vt 0.494070 0.531280
vt 0.494070 0.445889
vt 0.413528 0.531280
vt 0.413528 0.445889
s 0
usemtl WallMats
f 28/80/1 47/118/1 71/151/1
f 34/92/2 45/114/2 79/159/2
f 20/64/3 41/106/3 63/143/3
f 68/148/2 13/43/2 32/88/2
f 76/156/1 11/38/1 38/100/1
f 49/122/4 24/72/4 60/140/4
f 25/73/5 14/48/5 29/81/5
f 17/57/5 10/34/5 21/65/5
f 8/27/4 51/126/4 43/110/4
f 3/10/4 53/129/4 45/113/4
f 33/89/6 9/30/6 37/97/6
f 7/24/6 31/85/6 27/77/6
f 19/61/6 13/44/6 23/69/6
f 4/13/5 39/101/5 35/93/5
f 20/63/6 9/31/6 1/1/6
f 19/61/6 24/71/6 20/63/6
f 18/59/5 14/49/5 6/19/5
f 17/57/5 22/67/5 18/59/5
f 58/138/4 13/45/4 55/133/4
f 60/140/4 23/70/4 58/138/4
f 5/18/3 61/141/3 47/117/3
f 19/62/3 63/143/3 61/141/3
f 28/79/6 13/46/6 5/15/6
f 27/77/6 32/87/6 28/79/6
f 8/28/5 30/83/5 16/54/5
f 26/75/5 29/81/5 30/83/5
f 66/146/2 15/52/2 52/127/2
f 68/148/2 31/86/2 66/146/2
f 7/25/1 69/149/1 44/111/1
f 27/78/1 71/151/1 69/149/1
f 36/95/5 10/35/5 2/5/5
f 35/93/5 40/103/5 36/95/5
f 3/11/6 38/99/6 11/37/6
f 34/91/6 37/97/6 38/99/6
f 74/154/1 9/32/1 49/121/1
f 76/156/1 37/98/1 74/154/1
f 1/4/2 77/157/2 41/105/2
f 33/90/2 79/159/2 77/157/2
f 78/158/2 35/94/2 36/96/2
f 77/157/2 80/160/2 78/158/2
f 42/107/2 36/96/2 2/6/2
f 41/105/2 78/158/2 42/107/2
f 39/102/1 73/153/1 40/104/1
f 75/155/1 74/154/1 73/153/1
f 40/104/1 50/123/1 10/33/1
f 73/153/1 49/121/1 50/123/1
f 70/150/1 25/74/1 26/76/1
f 69/149/1 72/152/1 70/150/1
f 43/109/1 26/76/1 8/26/1
f 43/109/1 69/149/1 70/150/1
f 29/82/2 65/145/2 30/84/2
f 67/147/2 66/146/2 65/145/2
f 30/84/2 51/125/2 16/55/2
f 65/145/2 52/127/2 51/125/2
f 62/142/3 17/58/3 18/60/3
f 61/141/3 64/144/3 62/142/3
f 48/119/3 18/60/3 6/20/3
f 47/117/3 62/142/3 48/119/3
f 21/66/4 57/137/4 22/68/4
f 59/139/4 58/138/4 57/137/4
f 22/68/4 56/135/4 14/47/4
f 57/137/4 55/133/4 56/135/4
f 46/115/4 12/41/4 4/12/4
f 45/113/4 54/131/4 46/115/4
f 44/112/4 15/53/4 7/23/4
f 43/110/4 52/128/4 44/112/4
f 10/36/4 59/139/4 21/66/4
f 59/139/4 49/122/4 60/140/4
f 12/42/1 75/155/1 39/102/1
f 75/155/1 53/130/1 76/156/1
f 14/50/2 67/147/2 29/82/2
f 67/147/2 55/134/2 68/148/2
f 64/144/3 2/8/3 17/58/3
f 63/143/3 42/108/3 64/144/3
f 80/160/2 4/14/2 35/94/2
f 79/159/2 46/116/2 80/160/2
f 72/152/1 6/22/1 25/74/1
f 71/151/1 48/120/1 72/152/1
f 28/80/1 5/16/1 47/118/1
f 34/92/2 3/9/2 45/114/2
f 20/64/3 1/2/3 41/106/3
f 68/148/2 55/134/2 13/43/2
f 76/156/1 53/130/1 11/38/1
f 49/122/4 9/29/4 24/72/4
f 25/73/5 6/21/5 14/48/5
f 17/57/5 2/7/5 10/34/5
f 8/27/4 16/56/4 51/126/4
f 3/10/4 11/39/4 53/129/4
f 33/89/6 1/3/6 9/30/6
f 7/24/6 15/51/6 31/85/6
f 19/61/6 5/17/6 13/44/6
f 4/13/5 12/40/5 39/101/5
f 20/63/6 24/71/6 9/31/6
f 19/61/6 23/69/6 24/71/6
f 18/59/5 22/67/5 14/49/5
f 17/57/5 21/65/5 22/67/5
f 58/138/4 23/70/4 13/45/4
f 60/140/4 24/72/4 23/70/4
f 5/18/3 19/62/3 61/141/3
f 19/62/3 20/64/3 63/143/3
f 28/79/6 32/87/6 13/46/6
f 27/77/6 31/85/6 32/87/6
f 8/28/5 26/75/5 30/83/5
f 26/75/5 25/73/5 29/81/5
f 66/146/2 31/86/2 15/52/2
f 68/148/2 32/88/2 31/86/2
f 7/25/1 27/78/1 69/149/1
f 27/78/1 28/80/1 71/151/1
f 36/95/5 40/103/5 10/35/5
f 35/93/5 39/101/5 40/103/5
f 3/11/6 34/91/6 38/99/6
f 34/91/6 33/89/6 37/97/6
f 74/154/1 37/98/1 9/32/1
f 76/156/1 38/100/1 37/98/1
f 1/4/2 33/90/2 77/157/2
f 33/90/2 34/92/2 79/159/2
f 78/158/2 80/160/2 35/94/2
f 77/157/2 79/159/2 80/160/2
f 42/107/2 78/158/2 36/96/2
f 41/105/2 77/157/2 78/158/2
f 39/102/1 75/155/1 73/153/1
f 75/155/1 76/156/1 74/154/1
f 40/104/1 73/153/1 50/123/1
f 73/153/1 74/154/1 49/121/1
f 70/150/1 72/152/1 25/74/1
f 69/149/1 71/151/1 72/152/1
f 43/109/1 70/150/1 26/76/1
f 43/109/1 44/111/1 69/149/1
f 29/82/2 67/147/2 65/145/2
f 67/147/2 68/148/2 66/146/2
f 30/84/2 65/145/2 51/125/2
f 65/145/2 66/146/2 52/127/2
f 62/142/3 64/144/3 17/58/3
f 61/141/3 63/143/3 64/144/3
f 48/119/3 62/142/3 18/60/3
f 47/117/3 61/141/3 62/142/3
f 21/66/4 59/139/4 57/137/4
f 59/139/4 60/140/4 58/138/4
f 22/68/4 57/137/4 56/135/4
f 57/137/4 58/138/4 55/133/4
f 46/115/4 54/131/4 12/41/4
f 45/113/4 53/129/4 54/131/4
f 44/112/4 52/128/4 15/53/4
f 43/110/4 51/126/4 52/128/4
f 10/36/4 50/124/4 59/139/4
f 59/139/4 50/124/4 49/122/4
f 12/42/1 54/132/1 75/155/1
f 75/155/1 54/132/1 53/130/1
f 14/50/2 56/136/2 67/147/2
f 67/147/2 56/136/2 55/134/2
f 64/144/3 42/108/3 2/8/3
f 63/143/3 41/106/3 42/108/3
f 80/160/2 46/116/2 4/14/2
f 79/159/2 45/114/2 46/116/2
f 72/152/1 48/120/1 6/22/1
f 71/151/1 47/118/1 48/120/1
